<?xml version="1.0" encoding="UTF-8"?>
<svg xmlns="http://www.w3.org/2000/svg" viewBox="0 0 900 1400" width="100%" height="100%">
  <title>Air Bridge — Sky Ariana Logistics Security Watermark</title>
  <defs>
    <filter id="soft-glow" x="-20%" y="-20%" width="140%" height="140%">
      <feGaussianBlur stdDeviation="1.5" result="blur" />
      <feComposite in="SourceGraphic" in2="blur" operator="over" />
    </filter>
    <linearGradient id="primary-grad" x1="0%" y1="0%" x2="100%" y2="100%">
      <stop offset="0%" stop-color="#1e3a8a" stop-opacity="0.85" />
      <stop offset="100%" stop-color="#6366f1" stop-opacity="0.5" />
    </linearGradient>
    <linearGradient id="fade-down" x1="0%" y1="0%" x2="0%" y2="100%">
      <stop offset="0%" stop-color="#1e3a8a" stop-opacity="0.7" />
      <stop offset="100%" stop-color="#6366f1" stop-opacity="0.1" />
    </linearGradient>
  </defs>
  
  <!-- Security Document Outer Border & Fine Calibrated Grid -->
  <g fill="none" stroke="#1e3a8a">
    <!-- Primary Outer Frame -->
    <rect x="24" y="24" width="852" height="1352" rx="4" stroke-width="1.5" opacity="0.65" />
    <rect x="32" y="32" width="836" height="1336" rx="2" stroke-width="0.7" stroke-dasharray="5 3" opacity="0.5" />
    <rect x="42" y="42" width="816" height="1316" stroke-width="0.5" opacity="0.3" />

    <!-- Corner Alignment Crosshairs -->
    <path d="M16,40 L16,16 L40,16" stroke-width="2" opacity="0.8" />
    <path d="M884,40 L884,16 L860,16" stroke-width="2" opacity="0.8" />
    <path d="M16,1360 L16,1384 L40,1384" stroke-width="2" opacity="0.8" />
    <path d="M884,1360 L884,1384 L860,1384" stroke-width="2" opacity="0.8" />

    <!-- Top & Bottom Micro-Text Security Banners -->
    <text x="450" y="20" font-family="Arial, sans-serif" font-size="7.5" font-weight="bold" letter-spacing="4" text-anchor="middle" fill="#1e3a8a" opacity="0.75">★ SKY ARIANA LOGISTICS · OFFICIAL MULTI-MODAL BILL OF LADING SECURITY SYSTEM ★</text>
    <text x="450" y="1390" font-family="Arial, sans-serif" font-size="7.5" font-weight="bold" letter-spacing="4" text-anchor="middle" fill="#1e3a8a" opacity="0.75">★ AUTHENTIC SECURE CARGO WAYBILL · VERIFIED INTERNATIONAL TRANSIT NETWORK ★</text>

    <!-- Side Margin Degree & Metric Ticks -->
    <g opacity="0.4" stroke-width="0.6">
      <line x1="20" y1="350" x2="28" y2="350" /><line x1="20" y1="700" x2="30" y2="700" stroke-width="1.2" /><line x1="20" y1="1050" x2="28" y2="1050" />
      <line x1="872" y1="350" x2="880" y2="350" /><line x1="870" y1="700" x2="880" y2="700" stroke-width="1.2" /><line x1="872" y1="1050" x2="880" y2="1050" />
      <line x1="225" y1="20" x2="225" y2="28" /><line x1="450" y1="18" x2="450" y2="30" stroke-width="1.2" /><line x1="675" y1="20" x2="675" y2="28" />
      <line x1="225" y1="1372" x2="225" y2="1380" /><line x1="450" y1="1370" x2="450" y2="1382" stroke-width="1.2" /><line x1="675" y1="1372" x2="675" y2="1380" />
    </g>
  </g>
  <g transform="translate(75,75)">
      <circle cx="0" cy="0" r="32" fill="none" stroke="#1e3a8a" stroke-width="1.2" opacity="0.6" />
      <circle cx="0" cy="0" r="28" fill="none" stroke="#6366f1" stroke-width="0.8" stroke-dasharray="2 3" opacity="0.5" />
      <circle cx="0" cy="0" r="16" fill="none" stroke="#1e3a8a" stroke-width="0.9" opacity="0.6" />
      <circle cx="0" cy="0" r="4" fill="#1e3a8a" opacity="0.75" />
      <path d="M-36,0 L36,0 M0,-36 L0,36" stroke="#1e3a8a" stroke-width="0.6" opacity="0.4" />
      <path d="M-24,-24 L24,24 M-24,24 L24,-24" stroke="#6366f1" stroke-width="0.6" opacity="0.4" />
    </g><g transform="translate(825,75)">
      <circle cx="0" cy="0" r="32" fill="none" stroke="#1e3a8a" stroke-width="1.2" opacity="0.6" />
      <circle cx="0" cy="0" r="28" fill="none" stroke="#6366f1" stroke-width="0.8" stroke-dasharray="2 3" opacity="0.5" />
      <circle cx="0" cy="0" r="16" fill="none" stroke="#1e3a8a" stroke-width="0.9" opacity="0.6" />
      <circle cx="0" cy="0" r="4" fill="#1e3a8a" opacity="0.75" />
      <path d="M-36,0 L36,0 M0,-36 L0,36" stroke="#1e3a8a" stroke-width="0.6" opacity="0.4" />
      <path d="M-24,-24 L24,24 M-24,24 L24,-24" stroke="#6366f1" stroke-width="0.6" opacity="0.4" />
    </g><g transform="translate(75,1325)">
      <circle cx="0" cy="0" r="32" fill="none" stroke="#1e3a8a" stroke-width="1.2" opacity="0.6" />
      <circle cx="0" cy="0" r="28" fill="none" stroke="#6366f1" stroke-width="0.8" stroke-dasharray="2 3" opacity="0.5" />
      <circle cx="0" cy="0" r="16" fill="none" stroke="#1e3a8a" stroke-width="0.9" opacity="0.6" />
      <circle cx="0" cy="0" r="4" fill="#1e3a8a" opacity="0.75" />
      <path d="M-36,0 L36,0 M0,-36 L0,36" stroke="#1e3a8a" stroke-width="0.6" opacity="0.4" />
      <path d="M-24,-24 L24,24 M-24,24 L24,-24" stroke="#6366f1" stroke-width="0.6" opacity="0.4" />
    </g><g transform="translate(825,1325)">
      <circle cx="0" cy="0" r="32" fill="none" stroke="#1e3a8a" stroke-width="1.2" opacity="0.6" />
      <circle cx="0" cy="0" r="28" fill="none" stroke="#6366f1" stroke-width="0.8" stroke-dasharray="2 3" opacity="0.5" />
      <circle cx="0" cy="0" r="16" fill="none" stroke="#1e3a8a" stroke-width="0.9" opacity="0.6" />
      <circle cx="0" cy="0" r="4" fill="#1e3a8a" opacity="0.75" />
      <path d="M-36,0 L36,0 M0,-36 L0,36" stroke="#1e3a8a" stroke-width="0.6" opacity="0.4" />
      <path d="M-24,-24 L24,24 M-24,24 L24,-24" stroke="#6366f1" stroke-width="0.6" opacity="0.4" />
    </g>


  <!-- Intercontinental Air Bridge Geodesic Network -->
  <g fill="none" stroke="#1e3a8a">
    <!-- Giant Suspension-Style Air Bridge Arcs Across the Sky -->
    <g opacity="0.8">
      <!-- Main Upper Suspension Cable / Flight Track -->
      <path d="M 60,780 C 220,380 680,380 840,780" stroke="#1e3a8a" stroke-width="2.5" />
      <path d="M 60,795 C 220,395 680,395 840,795" stroke="#6366f1" stroke-width="1.5" stroke-dasharray="8 5" />
      <path d="M 60,840 C 220,480 680,480 840,840" stroke="#3b82f6" stroke-width="1.2" />

      <!-- Vertical Flight Bridge Suspension Hangers -->
      <g>
          <line x1="160" y1="601.2" x2="160" y2="920" stroke="#6366f1" stroke-width="0.9" stroke-dasharray="4 4" opacity="0.6" />
          <circle cx="160" cy="601.2" r="3" fill="#1e3a8a" />
        </g>
<g>
          <line x1="240" y1="496.0" x2="240" y2="920" stroke="#6366f1" stroke-width="0.9" stroke-dasharray="4 4" opacity="0.6" />
          <circle cx="240" cy="496.0" r="3" fill="#1e3a8a" />
        </g>
<g>
          <line x1="320" y1="424.4" x2="320" y2="920" stroke="#6366f1" stroke-width="0.9" stroke-dasharray="4 4" opacity="0.6" />
          <circle cx="320" cy="424.4" r="3" fill="#1e3a8a" />
        </g>
<g>
          <line x1="400" y1="386.6" x2="400" y2="920" stroke="#6366f1" stroke-width="0.9" stroke-dasharray="4 4" opacity="0.6" />
          <circle cx="400" cy="386.6" r="3" fill="#1e3a8a" />
        </g>
<g>
          <line x1="480" y1="382.4" x2="480" y2="920" stroke="#6366f1" stroke-width="0.9" stroke-dasharray="4 4" opacity="0.6" />
          <circle cx="480" cy="382.4" r="3" fill="#1e3a8a" />
        </g>
<g>
          <line x1="560" y1="411.8" x2="560" y2="920" stroke="#6366f1" stroke-width="0.9" stroke-dasharray="4 4" opacity="0.6" />
          <circle cx="560" cy="411.8" r="3" fill="#1e3a8a" />
        </g>
<g>
          <line x1="640" y1="474.9" x2="640" y2="920" stroke="#6366f1" stroke-width="0.9" stroke-dasharray="4 4" opacity="0.6" />
          <circle cx="640" cy="474.9" r="3" fill="#1e3a8a" />
        </g>
<g>
          <line x1="720" y1="571.7" x2="720" y2="920" stroke="#6366f1" stroke-width="0.9" stroke-dasharray="4 4" opacity="0.6" />
          <circle cx="720" cy="571.7" r="3" fill="#1e3a8a" />
        </g>

      <!-- Bridge Roadway Base Deck -->
      <line x1="60" y1="920" x2="840" y2="920" stroke="#1e3a8a" stroke-width="2" />
      <line x1="60" y1="928" x2="840" y2="928" stroke="#6366f1" stroke-width="1" stroke-dasharray="6 4" />
    </g>

    <!-- World Cargo Airport Hub Badges Along the Bridge Deck -->
    
      <g transform="translate(120, 920)">
        <circle cx="0" cy="0" r="14" fill="#ffffff" stroke="#1e3a8a" stroke-width="1.5" />
        <circle cx="0" cy="0" r="4" fill="#6366f1" />
        <rect x="-35" y="18" width="70" height="24" fill="#ffffff" fill-opacity="0.9" rx="2" stroke="#1e3a8a" stroke-width="0.6" />
        <text x="0" y="29" font-family="Arial, sans-serif" font-size="8" font-weight="900" fill="#1e3a8a" text-anchor="middle">KBL</text>
        <text x="0" y="38" font-family="Arial, sans-serif" font-size="6" font-weight="bold" fill="#6366f1" text-anchor="middle">KABUL HUB</text>
      </g>
    

      <g transform="translate(260, 920)">
        <circle cx="0" cy="0" r="14" fill="#ffffff" stroke="#1e3a8a" stroke-width="1.5" />
        <circle cx="0" cy="0" r="4" fill="#6366f1" />
        <rect x="-35" y="18" width="70" height="24" fill="#ffffff" fill-opacity="0.9" rx="2" stroke="#1e3a8a" stroke-width="0.6" />
        <text x="0" y="29" font-family="Arial, sans-serif" font-size="8" font-weight="900" fill="#1e3a8a" text-anchor="middle">DXB</text>
        <text x="0" y="38" font-family="Arial, sans-serif" font-size="6" font-weight="bold" fill="#6366f1" text-anchor="middle">DUBAI INTL</text>
      </g>
    

      <g transform="translate(400, 920)">
        <circle cx="0" cy="0" r="14" fill="#ffffff" stroke="#1e3a8a" stroke-width="1.5" />
        <circle cx="0" cy="0" r="4" fill="#6366f1" />
        <rect x="-35" y="18" width="70" height="24" fill="#ffffff" fill-opacity="0.9" rx="2" stroke="#1e3a8a" stroke-width="0.6" />
        <text x="0" y="29" font-family="Arial, sans-serif" font-size="8" font-weight="900" fill="#1e3a8a" text-anchor="middle">IST</text>
        <text x="0" y="38" font-family="Arial, sans-serif" font-size="6" font-weight="bold" fill="#6366f1" text-anchor="middle">ISTANBUL</text>
      </g>
    

      <g transform="translate(540, 920)">
        <circle cx="0" cy="0" r="14" fill="#ffffff" stroke="#1e3a8a" stroke-width="1.5" />
        <circle cx="0" cy="0" r="4" fill="#6366f1" />
        <rect x="-35" y="18" width="70" height="24" fill="#ffffff" fill-opacity="0.9" rx="2" stroke="#1e3a8a" stroke-width="0.6" />
        <text x="0" y="29" font-family="Arial, sans-serif" font-size="8" font-weight="900" fill="#1e3a8a" text-anchor="middle">FRA</text>
        <text x="0" y="38" font-family="Arial, sans-serif" font-size="6" font-weight="bold" fill="#6366f1" text-anchor="middle">FRANKFURT</text>
      </g>
    

      <g transform="translate(680, 920)">
        <circle cx="0" cy="0" r="14" fill="#ffffff" stroke="#1e3a8a" stroke-width="1.5" />
        <circle cx="0" cy="0" r="4" fill="#6366f1" />
        <rect x="-35" y="18" width="70" height="24" fill="#ffffff" fill-opacity="0.9" rx="2" stroke="#1e3a8a" stroke-width="0.6" />
        <text x="0" y="29" font-family="Arial, sans-serif" font-size="8" font-weight="900" fill="#1e3a8a" text-anchor="middle">PVG</text>
        <text x="0" y="38" font-family="Arial, sans-serif" font-size="6" font-weight="bold" fill="#6366f1" text-anchor="middle">SHANGHAI</text>
      </g>
    

      <g transform="translate(800, 920)">
        <circle cx="0" cy="0" r="14" fill="#ffffff" stroke="#1e3a8a" stroke-width="1.5" />
        <circle cx="0" cy="0" r="4" fill="#6366f1" />
        <rect x="-35" y="18" width="70" height="24" fill="#ffffff" fill-opacity="0.9" rx="2" stroke="#1e3a8a" stroke-width="0.6" />
        <text x="0" y="29" font-family="Arial, sans-serif" font-size="8" font-weight="900" fill="#1e3a8a" text-anchor="middle">ORD</text>
        <text x="0" y="38" font-family="Arial, sans-serif" font-size="6" font-weight="bold" fill="#6366f1" text-anchor="middle">CHICAGO</text>
      </g>
    

    <!-- Heavy Multi-Engine Transport Flying Across the Bridge Peak -->
    <g transform="translate(450, 360) scale(1.1)" fill="#1e3a8a" opacity="0.9">
      <path d="M 0,-75 C 10,-70 12,-40 12,-10 L 105,42 L 105,52 L 12,24 L 10,80 L 32,105 L 32,114 L 0,102 L -32,114 L -32,105 L -10,80 L -12,24 L -105,52 L -105,42 L -12,-10 C -12,-40 -10,-70 0,-75 Z" />
      <!-- 4 Engines -->
      <ellipse cx="60" cy="30" rx="5" ry="12" fill="#6366f1" />
      <ellipse cx="35" cy="30" rx="5" ry="12" fill="#6366f1" />
      <ellipse cx="-35" cy="30" rx="5" ry="12" fill="#6366f1" />
      <ellipse cx="-60" cy="30" rx="5" ry="12" fill="#6366f1" />
    </g>

    <!-- Latitude / Longitude Globe Grid in Lower Background -->
    <g transform="translate(450, 1160)" opacity="0.35">
      <ellipse cx="0" cy="0" rx="320" ry="120" stroke="#1e3a8a" stroke-width="1.2" />
      <ellipse cx="0" cy="0" rx="220" ry="80" stroke="#1e3a8a" stroke-width="0.8" stroke-dasharray="5 4" />
      <ellipse cx="0" cy="0" rx="110" ry="40" stroke="#1e3a8a" stroke-width="0.8" />
      <line x1="-340" y1="0" x2="340" y2="0" stroke="#1e3a8a" stroke-width="1.2" />
      <text x="0" y="-15" font-family="Arial, sans-serif" font-size="9" font-weight="bold" fill="#1e3a8a" text-anchor="middle">GLOBAL INTERMODAL AIR FREIGHT CORRIDOR</text>
    </g>
  </g>
</svg>