<?xml version="1.0" encoding="UTF-8"?>
<svg xmlns="http://www.w3.org/2000/svg" viewBox="0 0 900 1400" width="100%" height="100%">
  <title>Alpine Dawn — Sky Ariana Logistics Security Watermark</title>
  <defs>
    <filter id="soft-glow" x="-20%" y="-20%" width="140%" height="140%">
      <feGaussianBlur stdDeviation="1.5" result="blur" />
      <feComposite in="SourceGraphic" in2="blur" operator="over" />
    </filter>
    <linearGradient id="primary-grad" x1="0%" y1="0%" x2="100%" y2="100%">
      <stop offset="0%" stop-color="#1e3a8a" stop-opacity="0.85" />
      <stop offset="100%" stop-color="#0284c7" stop-opacity="0.5" />
    </linearGradient>
    <linearGradient id="fade-down" x1="0%" y1="0%" x2="0%" y2="100%">
      <stop offset="0%" stop-color="#1e3a8a" stop-opacity="0.7" />
      <stop offset="100%" stop-color="#0284c7" stop-opacity="0.1" />
    </linearGradient>
  </defs>
  
  <!-- Security Document Outer Border & Fine Calibrated Grid -->
  <g fill="none" stroke="#1e3a8a">
    <!-- Primary Outer Frame -->
    <rect x="24" y="24" width="852" height="1352" rx="4" stroke-width="1.5" opacity="0.65" />
    <rect x="32" y="32" width="836" height="1336" rx="2" stroke-width="0.7" stroke-dasharray="5 3" opacity="0.5" />
    <rect x="42" y="42" width="816" height="1316" stroke-width="0.5" opacity="0.3" />

    <!-- Corner Alignment Crosshairs -->
    <path d="M16,40 L16,16 L40,16" stroke-width="2" opacity="0.8" />
    <path d="M884,40 L884,16 L860,16" stroke-width="2" opacity="0.8" />
    <path d="M16,1360 L16,1384 L40,1384" stroke-width="2" opacity="0.8" />
    <path d="M884,1360 L884,1384 L860,1384" stroke-width="2" opacity="0.8" />

    <!-- Top & Bottom Micro-Text Security Banners -->
    <text x="450" y="20" font-family="Arial, sans-serif" font-size="7.5" font-weight="bold" letter-spacing="4" text-anchor="middle" fill="#1e3a8a" opacity="0.75">★ SKY ARIANA LOGISTICS · OFFICIAL MULTI-MODAL BILL OF LADING SECURITY SYSTEM ★</text>
    <text x="450" y="1390" font-family="Arial, sans-serif" font-size="7.5" font-weight="bold" letter-spacing="4" text-anchor="middle" fill="#1e3a8a" opacity="0.75">★ AUTHENTIC SECURE CARGO WAYBILL · VERIFIED INTERNATIONAL TRANSIT NETWORK ★</text>

    <!-- Side Margin Degree & Metric Ticks -->
    <g opacity="0.4" stroke-width="0.6">
      <line x1="20" y1="350" x2="28" y2="350" /><line x1="20" y1="700" x2="30" y2="700" stroke-width="1.2" /><line x1="20" y1="1050" x2="28" y2="1050" />
      <line x1="872" y1="350" x2="880" y2="350" /><line x1="870" y1="700" x2="880" y2="700" stroke-width="1.2" /><line x1="872" y1="1050" x2="880" y2="1050" />
      <line x1="225" y1="20" x2="225" y2="28" /><line x1="450" y1="18" x2="450" y2="30" stroke-width="1.2" /><line x1="675" y1="20" x2="675" y2="28" />
      <line x1="225" y1="1372" x2="225" y2="1380" /><line x1="450" y1="1370" x2="450" y2="1382" stroke-width="1.2" /><line x1="675" y1="1372" x2="675" y2="1380" />
    </g>
  </g>
  <g transform="translate(75,75)">
      <circle cx="0" cy="0" r="32" fill="none" stroke="#1e3a8a" stroke-width="1.2" opacity="0.6" />
      <circle cx="0" cy="0" r="28" fill="none" stroke="#0284c7" stroke-width="0.8" stroke-dasharray="2 3" opacity="0.5" />
      <circle cx="0" cy="0" r="16" fill="none" stroke="#1e3a8a" stroke-width="0.9" opacity="0.6" />
      <circle cx="0" cy="0" r="4" fill="#1e3a8a" opacity="0.75" />
      <path d="M-36,0 L36,0 M0,-36 L0,36" stroke="#1e3a8a" stroke-width="0.6" opacity="0.4" />
      <path d="M-24,-24 L24,24 M-24,24 L24,-24" stroke="#0284c7" stroke-width="0.6" opacity="0.4" />
    </g><g transform="translate(825,75)">
      <circle cx="0" cy="0" r="32" fill="none" stroke="#1e3a8a" stroke-width="1.2" opacity="0.6" />
      <circle cx="0" cy="0" r="28" fill="none" stroke="#0284c7" stroke-width="0.8" stroke-dasharray="2 3" opacity="0.5" />
      <circle cx="0" cy="0" r="16" fill="none" stroke="#1e3a8a" stroke-width="0.9" opacity="0.6" />
      <circle cx="0" cy="0" r="4" fill="#1e3a8a" opacity="0.75" />
      <path d="M-36,0 L36,0 M0,-36 L0,36" stroke="#1e3a8a" stroke-width="0.6" opacity="0.4" />
      <path d="M-24,-24 L24,24 M-24,24 L24,-24" stroke="#0284c7" stroke-width="0.6" opacity="0.4" />
    </g><g transform="translate(75,1325)">
      <circle cx="0" cy="0" r="32" fill="none" stroke="#1e3a8a" stroke-width="1.2" opacity="0.6" />
      <circle cx="0" cy="0" r="28" fill="none" stroke="#0284c7" stroke-width="0.8" stroke-dasharray="2 3" opacity="0.5" />
      <circle cx="0" cy="0" r="16" fill="none" stroke="#1e3a8a" stroke-width="0.9" opacity="0.6" />
      <circle cx="0" cy="0" r="4" fill="#1e3a8a" opacity="0.75" />
      <path d="M-36,0 L36,0 M0,-36 L0,36" stroke="#1e3a8a" stroke-width="0.6" opacity="0.4" />
      <path d="M-24,-24 L24,24 M-24,24 L24,-24" stroke="#0284c7" stroke-width="0.6" opacity="0.4" />
    </g><g transform="translate(825,1325)">
      <circle cx="0" cy="0" r="32" fill="none" stroke="#1e3a8a" stroke-width="1.2" opacity="0.6" />
      <circle cx="0" cy="0" r="28" fill="none" stroke="#0284c7" stroke-width="0.8" stroke-dasharray="2 3" opacity="0.5" />
      <circle cx="0" cy="0" r="16" fill="none" stroke="#1e3a8a" stroke-width="0.9" opacity="0.6" />
      <circle cx="0" cy="0" r="4" fill="#1e3a8a" opacity="0.75" />
      <path d="M-36,0 L36,0 M0,-36 L0,36" stroke="#1e3a8a" stroke-width="0.6" opacity="0.4" />
      <path d="M-24,-24 L24,24 M-24,24 L24,-24" stroke="#0284c7" stroke-width="0.6" opacity="0.4" />
    </g>


  <!-- Jagged Hindu Kush Snow Peaks & Radiant Alpine Sunrise -->
  <g fill="none" stroke="#1e3a8a">
    <!-- Radiant Alpenglow Sunburst Rising Behind the Ridge (Center: 580, 520) -->
    <g transform="translate(580, 520)">
      <circle cx="0" cy="0" r="75" fill="#ffffff" fill-opacity="0.9" stroke="#d97706" stroke-width="2" />
      <circle cx="0" cy="0" r="55" fill="#d97706" fill-opacity="0.2" stroke="#d97706" stroke-width="1" />
      <line x1="80.0" y1="0.0" x2="240.0" y2="0.0" stroke="#d97706" stroke-width="1.2" opacity="0.4" />
<line x1="77.3" y1="20.7" x2="231.8" y2="62.1" stroke="#d97706" stroke-width="1.2" opacity="0.4" />
<line x1="69.3" y1="40.0" x2="207.8" y2="120.0" stroke="#d97706" stroke-width="1.2" opacity="0.4" />
<line x1="56.6" y1="56.6" x2="169.7" y2="169.7" stroke="#d97706" stroke-width="1.2" opacity="0.4" />
<line x1="40.0" y1="69.3" x2="120.0" y2="207.8" stroke="#d97706" stroke-width="1.2" opacity="0.4" />
<line x1="20.7" y1="77.3" x2="62.1" y2="231.8" stroke="#d97706" stroke-width="1.2" opacity="0.4" />
<line x1="0.0" y1="80.0" x2="0.0" y2="240.0" stroke="#d97706" stroke-width="1.2" opacity="0.4" />
<line x1="-20.7" y1="77.3" x2="-62.1" y2="231.8" stroke="#d97706" stroke-width="1.2" opacity="0.4" />
<line x1="-40.0" y1="69.3" x2="-120.0" y2="207.8" stroke="#d97706" stroke-width="1.2" opacity="0.4" />
<line x1="-56.6" y1="56.6" x2="-169.7" y2="169.7" stroke="#d97706" stroke-width="1.2" opacity="0.4" />
<line x1="-69.3" y1="40.0" x2="-207.8" y2="120.0" stroke="#d97706" stroke-width="1.2" opacity="0.4" />
<line x1="-77.3" y1="20.7" x2="-231.8" y2="62.1" stroke="#d97706" stroke-width="1.2" opacity="0.4" />
<line x1="-80.0" y1="0.0" x2="-240.0" y2="0.0" stroke="#d97706" stroke-width="1.2" opacity="0.4" />
<line x1="-77.3" y1="-20.7" x2="-231.8" y2="-62.1" stroke="#d97706" stroke-width="1.2" opacity="0.4" />
<line x1="-69.3" y1="-40.0" x2="-207.8" y2="-120.0" stroke="#d97706" stroke-width="1.2" opacity="0.4" />
<line x1="-56.6" y1="-56.6" x2="-169.7" y2="-169.7" stroke="#d97706" stroke-width="1.2" opacity="0.4" />
<line x1="-40.0" y1="-69.3" x2="-120.0" y2="-207.8" stroke="#d97706" stroke-width="1.2" opacity="0.4" />
<line x1="-20.7" y1="-77.3" x2="-62.1" y2="-231.8" stroke="#d97706" stroke-width="1.2" opacity="0.4" />
<line x1="-0.0" y1="-80.0" x2="-0.0" y2="-240.0" stroke="#d97706" stroke-width="1.2" opacity="0.4" />
<line x1="20.7" y1="-77.3" x2="62.1" y2="-231.8" stroke="#d97706" stroke-width="1.2" opacity="0.4" />
<line x1="40.0" y1="-69.3" x2="120.0" y2="-207.8" stroke="#d97706" stroke-width="1.2" opacity="0.4" />
<line x1="56.6" y1="-56.6" x2="169.7" y2="-169.7" stroke="#d97706" stroke-width="1.2" opacity="0.4" />
<line x1="69.3" y1="-40.0" x2="207.8" y2="-120.0" stroke="#d97706" stroke-width="1.2" opacity="0.4" />
<line x1="77.3" y1="-20.7" x2="231.8" y2="-62.1" stroke="#d97706" stroke-width="1.2" opacity="0.4" />
    </g>

    <!-- Layer 1: Highest Far Snowy Ridge in Distance (Hindu Kush) -->
    <polygon points="60,680 180,440 280,520 420,380 580,500 700,340 840,560 840,780 60,780" fill="#ffffff" stroke="#1e3a8a" stroke-width="2.5" />
    <text x="700" y="325" font-family="Arial, sans-serif" font-size="8.5" font-weight="900" fill="#1e3a8a" text-anchor="middle">NOSHAQ PEAK 7,492 M</text>
    <text x="420" y="365" font-family="Arial, sans-serif" font-size="8.5" font-weight="900" fill="#1e3a8a" text-anchor="middle">TIRICH MIR 7,708 M</text>

    <!-- Snow-cap Facet Lines & Ridges -->
    <g stroke="#0284c7" stroke-width="1.2" opacity="0.7">
      <line x1="700" y1="340" x2="680" y2="580" />
      <line x1="700" y1="340" x2="740" y2="540" />
      <line x1="420" y1="380" x2="390" y2="600" />
      <line x1="420" y1="380" x2="470" y2="560" />
      <line x1="180" y1="440" x2="200" y2="620" />
    </g>

    <!-- Layer 2: Mid-Range Rocky Alpine Ridges -->
    <polygon points="60,820 160,660 310,740 480,580 640,720 780,620 840,740 840,940 60,940" fill="#1e3a8a" fill-opacity="0.12" stroke="#1e3a8a" stroke-width="2.5" />

    <!-- Topographic Contour Lines Across the Valley in Lower Half -->
    <g opacity="0.6">
      
        <path d="M 60,980 Q 250,950 450,980 T 840,980" stroke="#1e3a8a" stroke-width="1.8" />
        <text x="80" y="974" font-family="Courier, monospace" font-size="7.5" font-weight="bold" fill="#0284c7">4500 M CONTOUR</text>
      

        <path d="M 60,1040 Q 250,1010 450,1040 T 840,1040" stroke="#1e3a8a" stroke-width="1.6" />
        <text x="80" y="1034" font-family="Courier, monospace" font-size="7.5" font-weight="bold" fill="#0284c7">3900 M CONTOUR</text>
      

        <path d="M 60,1110 Q 250,1080 450,1110 T 840,1110" stroke="#1e3a8a" stroke-width="1.4" />
        <text x="80" y="1104" font-family="Courier, monospace" font-size="7.5" font-weight="bold" fill="#0284c7">3300 M CONTOUR</text>
      

        <path d="M 60,1180 Q 250,1150 450,1180 T 840,1180" stroke="#1e3a8a" stroke-width="1.2" />
        <text x="80" y="1174" font-family="Courier, monospace" font-size="7.5" font-weight="bold" fill="#0284c7">2700 M CONTOUR</text>
      

        <path d="M 60,1260 Q 250,1230 450,1260 T 840,1260" stroke="#1e3a8a" stroke-width="1" />
        <text x="80" y="1254" font-family="Courier, monospace" font-size="7.5" font-weight="bold" fill="#0284c7">2100 M CONTOUR</text>
      
    </g>

    <!-- Alpine Survey Bench Mark Seal in Upper Left -->
    <g transform="translate(240, 280)">
      <circle cx="0" cy="0" r="75" stroke="#1e3a8a" stroke-width="1.6" />
      <circle cx="0" cy="0" r="66" stroke="#d97706" stroke-width="0.8" stroke-dasharray="4 3" />
      <polygon points="0,-16 -14,10 14,10" fill="none" stroke="#1e3a8a" stroke-width="1.5" />
      <circle cx="0" cy="0" r="3" fill="#d97706" />
      <text x="0" y="24" font-family="Arial, sans-serif" font-size="8" font-weight="900" fill="#1e3a8a" text-anchor="middle">ALPINE GEODETIC SURVEY</text>
    </g>
  </g>
</svg>