<?xml version="1.0" encoding="UTF-8"?>
<svg xmlns="http://www.w3.org/2000/svg" viewBox="0 0 900 1400" width="100%" height="100%">
  <title>Desert Highway — Sky Ariana Logistics Security Watermark</title>
  <defs>
    <filter id="soft-glow" x="-20%" y="-20%" width="140%" height="140%">
      <feGaussianBlur stdDeviation="1.5" result="blur" />
      <feComposite in="SourceGraphic" in2="blur" operator="over" />
    </filter>
    <linearGradient id="primary-grad" x1="0%" y1="0%" x2="100%" y2="100%">
      <stop offset="0%" stop-color="#b45309" stop-opacity="0.85" />
      <stop offset="100%" stop-color="#d97706" stop-opacity="0.5" />
    </linearGradient>
    <linearGradient id="fade-down" x1="0%" y1="0%" x2="0%" y2="100%">
      <stop offset="0%" stop-color="#b45309" stop-opacity="0.7" />
      <stop offset="100%" stop-color="#d97706" stop-opacity="0.1" />
    </linearGradient>
  </defs>
  
  <!-- Security Document Outer Border & Fine Calibrated Grid -->
  <g fill="none" stroke="#b45309">
    <!-- Primary Outer Frame -->
    <rect x="24" y="24" width="852" height="1352" rx="4" stroke-width="1.5" opacity="0.65" />
    <rect x="32" y="32" width="836" height="1336" rx="2" stroke-width="0.7" stroke-dasharray="5 3" opacity="0.5" />
    <rect x="42" y="42" width="816" height="1316" stroke-width="0.5" opacity="0.3" />

    <!-- Corner Alignment Crosshairs -->
    <path d="M16,40 L16,16 L40,16" stroke-width="2" opacity="0.8" />
    <path d="M884,40 L884,16 L860,16" stroke-width="2" opacity="0.8" />
    <path d="M16,1360 L16,1384 L40,1384" stroke-width="2" opacity="0.8" />
    <path d="M884,1360 L884,1384 L860,1384" stroke-width="2" opacity="0.8" />

    <!-- Top & Bottom Micro-Text Security Banners -->
    <text x="450" y="20" font-family="Arial, sans-serif" font-size="7.5" font-weight="bold" letter-spacing="4" text-anchor="middle" fill="#b45309" opacity="0.75">★ SKY ARIANA LOGISTICS · OFFICIAL MULTI-MODAL BILL OF LADING SECURITY SYSTEM ★</text>
    <text x="450" y="1390" font-family="Arial, sans-serif" font-size="7.5" font-weight="bold" letter-spacing="4" text-anchor="middle" fill="#b45309" opacity="0.75">★ AUTHENTIC SECURE CARGO WAYBILL · VERIFIED INTERNATIONAL TRANSIT NETWORK ★</text>

    <!-- Side Margin Degree & Metric Ticks -->
    <g opacity="0.4" stroke-width="0.6">
      <line x1="20" y1="350" x2="28" y2="350" /><line x1="20" y1="700" x2="30" y2="700" stroke-width="1.2" /><line x1="20" y1="1050" x2="28" y2="1050" />
      <line x1="872" y1="350" x2="880" y2="350" /><line x1="870" y1="700" x2="880" y2="700" stroke-width="1.2" /><line x1="872" y1="1050" x2="880" y2="1050" />
      <line x1="225" y1="20" x2="225" y2="28" /><line x1="450" y1="18" x2="450" y2="30" stroke-width="1.2" /><line x1="675" y1="20" x2="675" y2="28" />
      <line x1="225" y1="1372" x2="225" y2="1380" /><line x1="450" y1="1370" x2="450" y2="1382" stroke-width="1.2" /><line x1="675" y1="1372" x2="675" y2="1380" />
    </g>
  </g>
  <g transform="translate(75,75)">
      <circle cx="0" cy="0" r="32" fill="none" stroke="#b45309" stroke-width="1.2" opacity="0.6" />
      <circle cx="0" cy="0" r="28" fill="none" stroke="#d97706" stroke-width="0.8" stroke-dasharray="2 3" opacity="0.5" />
      <circle cx="0" cy="0" r="16" fill="none" stroke="#b45309" stroke-width="0.9" opacity="0.6" />
      <circle cx="0" cy="0" r="4" fill="#b45309" opacity="0.75" />
      <path d="M-36,0 L36,0 M0,-36 L0,36" stroke="#b45309" stroke-width="0.6" opacity="0.4" />
      <path d="M-24,-24 L24,24 M-24,24 L24,-24" stroke="#d97706" stroke-width="0.6" opacity="0.4" />
    </g><g transform="translate(825,75)">
      <circle cx="0" cy="0" r="32" fill="none" stroke="#b45309" stroke-width="1.2" opacity="0.6" />
      <circle cx="0" cy="0" r="28" fill="none" stroke="#d97706" stroke-width="0.8" stroke-dasharray="2 3" opacity="0.5" />
      <circle cx="0" cy="0" r="16" fill="none" stroke="#b45309" stroke-width="0.9" opacity="0.6" />
      <circle cx="0" cy="0" r="4" fill="#b45309" opacity="0.75" />
      <path d="M-36,0 L36,0 M0,-36 L0,36" stroke="#b45309" stroke-width="0.6" opacity="0.4" />
      <path d="M-24,-24 L24,24 M-24,24 L24,-24" stroke="#d97706" stroke-width="0.6" opacity="0.4" />
    </g><g transform="translate(75,1325)">
      <circle cx="0" cy="0" r="32" fill="none" stroke="#b45309" stroke-width="1.2" opacity="0.6" />
      <circle cx="0" cy="0" r="28" fill="none" stroke="#d97706" stroke-width="0.8" stroke-dasharray="2 3" opacity="0.5" />
      <circle cx="0" cy="0" r="16" fill="none" stroke="#b45309" stroke-width="0.9" opacity="0.6" />
      <circle cx="0" cy="0" r="4" fill="#b45309" opacity="0.75" />
      <path d="M-36,0 L36,0 M0,-36 L0,36" stroke="#b45309" stroke-width="0.6" opacity="0.4" />
      <path d="M-24,-24 L24,24 M-24,24 L24,-24" stroke="#d97706" stroke-width="0.6" opacity="0.4" />
    </g><g transform="translate(825,1325)">
      <circle cx="0" cy="0" r="32" fill="none" stroke="#b45309" stroke-width="1.2" opacity="0.6" />
      <circle cx="0" cy="0" r="28" fill="none" stroke="#d97706" stroke-width="0.8" stroke-dasharray="2 3" opacity="0.5" />
      <circle cx="0" cy="0" r="16" fill="none" stroke="#b45309" stroke-width="0.9" opacity="0.6" />
      <circle cx="0" cy="0" r="4" fill="#b45309" opacity="0.75" />
      <path d="M-36,0 L36,0 M0,-36 L0,36" stroke="#b45309" stroke-width="0.6" opacity="0.4" />
      <path d="M-24,-24 L24,24 M-24,24 L24,-24" stroke="#d97706" stroke-width="0.6" opacity="0.4" />
    </g>


  <!-- Endless Desert Highway Perspective & Rolling Sand Dunes -->
  <g fill="none" stroke="#b45309">
    <!-- Blazing Desert Sun on Horizon (450, 520) -->
    <g transform="translate(450, 520)">
      <circle cx="0" cy="0" r="65" fill="#ffffff" fill-opacity="0.9" stroke="#d97706" stroke-width="2" />
      <circle cx="0" cy="0" r="45" fill="#d97706" fill-opacity="0.2" stroke="#d97706" stroke-width="1" />
      <line x1="70.0" y1="0.0" x2="140.0" y2="0.0" stroke="#d97706" stroke-width="1.2" opacity="0.4" />
<line x1="66.6" y1="21.6" x2="133.1" y2="43.3" stroke="#d97706" stroke-width="1.2" opacity="0.4" />
<line x1="56.6" y1="41.1" x2="113.3" y2="82.3" stroke="#d97706" stroke-width="1.2" opacity="0.4" />
<line x1="41.1" y1="56.6" x2="82.3" y2="113.3" stroke="#d97706" stroke-width="1.2" opacity="0.4" />
<line x1="21.6" y1="66.6" x2="43.3" y2="133.1" stroke="#d97706" stroke-width="1.2" opacity="0.4" />
<line x1="0.0" y1="70.0" x2="0.0" y2="140.0" stroke="#d97706" stroke-width="1.2" opacity="0.4" />
<line x1="-21.6" y1="66.6" x2="-43.3" y2="133.1" stroke="#d97706" stroke-width="1.2" opacity="0.4" />
<line x1="-41.1" y1="56.6" x2="-82.3" y2="113.3" stroke="#d97706" stroke-width="1.2" opacity="0.4" />
<line x1="-56.6" y1="41.1" x2="-113.3" y2="82.3" stroke="#d97706" stroke-width="1.2" opacity="0.4" />
<line x1="-66.6" y1="21.6" x2="-133.1" y2="43.3" stroke="#d97706" stroke-width="1.2" opacity="0.4" />
<line x1="-70.0" y1="0.0" x2="-140.0" y2="0.0" stroke="#d97706" stroke-width="1.2" opacity="0.4" />
<line x1="-66.6" y1="-21.6" x2="-133.1" y2="-43.3" stroke="#d97706" stroke-width="1.2" opacity="0.4" />
<line x1="-56.6" y1="-41.1" x2="-113.3" y2="-82.3" stroke="#d97706" stroke-width="1.2" opacity="0.4" />
<line x1="-41.1" y1="-56.6" x2="-82.3" y2="-113.3" stroke="#d97706" stroke-width="1.2" opacity="0.4" />
<line x1="-21.6" y1="-66.6" x2="-43.3" y2="-133.1" stroke="#d97706" stroke-width="1.2" opacity="0.4" />
<line x1="-0.0" y1="-70.0" x2="-0.0" y2="-140.0" stroke="#d97706" stroke-width="1.2" opacity="0.4" />
<line x1="21.6" y1="-66.6" x2="43.3" y2="-133.1" stroke="#d97706" stroke-width="1.2" opacity="0.4" />
<line x1="41.1" y1="-56.6" x2="82.3" y2="-113.3" stroke="#d97706" stroke-width="1.2" opacity="0.4" />
<line x1="56.6" y1="-41.1" x2="113.3" y2="-82.3" stroke="#d97706" stroke-width="1.2" opacity="0.4" />
<line x1="66.6" y1="-21.6" x2="133.1" y2="-43.3" stroke="#d97706" stroke-width="1.2" opacity="0.4" />
    </g>

    <!-- Rolling Desert Sand Dunes on Flanks -->
    <path d="M 60,620 Q 220,540 380,590 T 720,540 T 840,600" stroke="#d97706" stroke-width="2" />
    <path d="M 60,700 Q 200,620 360,670 T 700,610 T 840,680" stroke="#b45309" stroke-width="1.5" stroke-dasharray="6 4" opacity="0.6" />

    <!-- Desert Highway in Sharp Perspective Receding to Vanishing Point (450, 520) -->
    <g opacity="0.85">
      <!-- Outer Road Edges -->
      <line x1="450" y1="520" x2="160" y2="1320" stroke="#b45309" stroke-width="3" />
      <line x1="450" y1="520" x2="740" y2="1320" stroke="#b45309" stroke-width="3" />
      <!-- Road Shoulders -->
      <line x1="450" y1="520" x2="110" y2="1320" stroke="#d97706" stroke-width="1" stroke-dasharray="8 6" />
      <line x1="450" y1="520" x2="790" y2="1320" stroke="#d97706" stroke-width="1" stroke-dasharray="8 6" />

      <!-- Centerline White Dashes Receding -->
      <line x1="450" y1="520" x2="450" y2="1320" stroke="#d97706" stroke-width="3" stroke-dasharray="18 14" />

      <!-- Heat Shimmer Distortion Lines Across Highway -->
      
        <path d="M 425,620 Q 450,612 475,620" stroke="#d97706" stroke-width="1" opacity="0.6" />
      

        <path d="M 400,720 Q 450,712 500,720" stroke="#d97706" stroke-width="1" opacity="0.6" />
      

        <path d="M 370,840 Q 450,832 530,840" stroke="#d97706" stroke-width="1" opacity="0.6" />
      

        <path d="M 335,980 Q 450,972 565,980" stroke="#d97706" stroke-width="1" opacity="0.6" />
      

        <path d="M 295,1140 Q 450,1132 605,1140" stroke="#d97706" stroke-width="1" opacity="0.6" />
      
    </g>

    <!-- Long-Haul Freight Truck Approaching in Perspective (x = 450, y = 780) -->
    <g transform="translate(450, 780) scale(1.1)" fill="#b45309">
      <rect x="-35" y="-55" width="70" height="50" rx="3" fill="#ffffff" stroke="#b45309" stroke-width="2.5" />
      <rect x="-30" y="-50" width="60" height="24" fill="#b45309" fill-opacity="0.3" stroke="#b45309" stroke-width="1.2" />
      <!-- Windshield -->
      <rect x="-26" y="-46" width="52" height="14" fill="#ffffff" stroke="#b45309" stroke-width="1" />
      <!-- Headlights -->
      <circle cx="-24" cy="-14" r="5" fill="#d97706" />
      <circle cx="24" cy="-14" r="5" fill="#d97706" />
      <!-- Chrome Grille -->
      <line x1="-16" y1="-20" x2="16" y2="-20" stroke="#b45309" stroke-width="1.5" />
      <line x1="-16" y1="-14" x2="16" y2="-14" stroke="#b45309" stroke-width="1.5" />
      <line x1="-16" y1="-8" x2="16" y2="-8" stroke="#b45309" stroke-width="1.5" />
      <!-- Tires -->
      <rect x="-42" y="-20" width="8" height="25" rx="2" fill="#b45309" />
      <rect x="34" y="-20" width="8" height="25" rx="2" fill="#b45309" />
    </g>

    <!-- Trans-Desert Route Seal at Bottom -->
    <g transform="translate(450, 1260)">
      <rect x="-160" y="-16" width="320" height="32" fill="#ffffff" fill-opacity="0.9" rx="3" stroke="#b45309" stroke-width="1.5" />
      <text x="0" y="5" font-family="Arial, sans-serif" font-size="9" font-weight="900" letter-spacing="2" fill="#b45309" text-anchor="middle">TRANS-DESERT ARTERIAL CORRIDOR · CONTINUOUS TRANSIT</text>
    </g>
  </g>
</svg>