<?xml version="1.0" encoding="UTF-8"?>
<svg xmlns="http://www.w3.org/2000/svg" viewBox="0 0 900 1400" width="100%" height="100%">
  <title>Soft Arches — Sky Ariana Logistics Security Watermark</title>
  <defs>
    <filter id="soft-glow" x="-20%" y="-20%" width="140%" height="140%">
      <feGaussianBlur stdDeviation="1.5" result="blur" />
      <feComposite in="SourceGraphic" in2="blur" operator="over" />
    </filter>
    <linearGradient id="primary-grad" x1="0%" y1="0%" x2="100%" y2="100%">
      <stop offset="0%" stop-color="#15803d" stop-opacity="0.85" />
      <stop offset="100%" stop-color="#166534" stop-opacity="0.5" />
    </linearGradient>
    <linearGradient id="fade-down" x1="0%" y1="0%" x2="0%" y2="100%">
      <stop offset="0%" stop-color="#15803d" stop-opacity="0.7" />
      <stop offset="100%" stop-color="#166534" stop-opacity="0.1" />
    </linearGradient>
  </defs>
  
  <!-- Security Document Outer Border & Fine Calibrated Grid -->
  <g fill="none" stroke="#15803d">
    <!-- Primary Outer Frame -->
    <rect x="24" y="24" width="852" height="1352" rx="4" stroke-width="1.5" opacity="0.65" />
    <rect x="32" y="32" width="836" height="1336" rx="2" stroke-width="0.7" stroke-dasharray="5 3" opacity="0.5" />
    <rect x="42" y="42" width="816" height="1316" stroke-width="0.5" opacity="0.3" />

    <!-- Corner Alignment Crosshairs -->
    <path d="M16,40 L16,16 L40,16" stroke-width="2" opacity="0.8" />
    <path d="M884,40 L884,16 L860,16" stroke-width="2" opacity="0.8" />
    <path d="M16,1360 L16,1384 L40,1384" stroke-width="2" opacity="0.8" />
    <path d="M884,1360 L884,1384 L860,1384" stroke-width="2" opacity="0.8" />

    <!-- Top & Bottom Micro-Text Security Banners -->
    <text x="450" y="20" font-family="Arial, sans-serif" font-size="7.5" font-weight="bold" letter-spacing="4" text-anchor="middle" fill="#15803d" opacity="0.75">★ SKY ARIANA LOGISTICS · OFFICIAL MULTI-MODAL BILL OF LADING SECURITY SYSTEM ★</text>
    <text x="450" y="1390" font-family="Arial, sans-serif" font-size="7.5" font-weight="bold" letter-spacing="4" text-anchor="middle" fill="#15803d" opacity="0.75">★ AUTHENTIC SECURE CARGO WAYBILL · VERIFIED INTERNATIONAL TRANSIT NETWORK ★</text>

    <!-- Side Margin Degree & Metric Ticks -->
    <g opacity="0.4" stroke-width="0.6">
      <line x1="20" y1="350" x2="28" y2="350" /><line x1="20" y1="700" x2="30" y2="700" stroke-width="1.2" /><line x1="20" y1="1050" x2="28" y2="1050" />
      <line x1="872" y1="350" x2="880" y2="350" /><line x1="870" y1="700" x2="880" y2="700" stroke-width="1.2" /><line x1="872" y1="1050" x2="880" y2="1050" />
      <line x1="225" y1="20" x2="225" y2="28" /><line x1="450" y1="18" x2="450" y2="30" stroke-width="1.2" /><line x1="675" y1="20" x2="675" y2="28" />
      <line x1="225" y1="1372" x2="225" y2="1380" /><line x1="450" y1="1370" x2="450" y2="1382" stroke-width="1.2" /><line x1="675" y1="1372" x2="675" y2="1380" />
    </g>
  </g>
  <g transform="translate(75,75)">
      <circle cx="0" cy="0" r="32" fill="none" stroke="#15803d" stroke-width="1.2" opacity="0.6" />
      <circle cx="0" cy="0" r="28" fill="none" stroke="#166534" stroke-width="0.8" stroke-dasharray="2 3" opacity="0.5" />
      <circle cx="0" cy="0" r="16" fill="none" stroke="#15803d" stroke-width="0.9" opacity="0.6" />
      <circle cx="0" cy="0" r="4" fill="#15803d" opacity="0.75" />
      <path d="M-36,0 L36,0 M0,-36 L0,36" stroke="#15803d" stroke-width="0.6" opacity="0.4" />
      <path d="M-24,-24 L24,24 M-24,24 L24,-24" stroke="#166534" stroke-width="0.6" opacity="0.4" />
    </g><g transform="translate(825,75)">
      <circle cx="0" cy="0" r="32" fill="none" stroke="#15803d" stroke-width="1.2" opacity="0.6" />
      <circle cx="0" cy="0" r="28" fill="none" stroke="#166534" stroke-width="0.8" stroke-dasharray="2 3" opacity="0.5" />
      <circle cx="0" cy="0" r="16" fill="none" stroke="#15803d" stroke-width="0.9" opacity="0.6" />
      <circle cx="0" cy="0" r="4" fill="#15803d" opacity="0.75" />
      <path d="M-36,0 L36,0 M0,-36 L0,36" stroke="#15803d" stroke-width="0.6" opacity="0.4" />
      <path d="M-24,-24 L24,24 M-24,24 L24,-24" stroke="#166534" stroke-width="0.6" opacity="0.4" />
    </g><g transform="translate(75,1325)">
      <circle cx="0" cy="0" r="32" fill="none" stroke="#15803d" stroke-width="1.2" opacity="0.6" />
      <circle cx="0" cy="0" r="28" fill="none" stroke="#166534" stroke-width="0.8" stroke-dasharray="2 3" opacity="0.5" />
      <circle cx="0" cy="0" r="16" fill="none" stroke="#15803d" stroke-width="0.9" opacity="0.6" />
      <circle cx="0" cy="0" r="4" fill="#15803d" opacity="0.75" />
      <path d="M-36,0 L36,0 M0,-36 L0,36" stroke="#15803d" stroke-width="0.6" opacity="0.4" />
      <path d="M-24,-24 L24,24 M-24,24 L24,-24" stroke="#166534" stroke-width="0.6" opacity="0.4" />
    </g><g transform="translate(825,1325)">
      <circle cx="0" cy="0" r="32" fill="none" stroke="#15803d" stroke-width="1.2" opacity="0.6" />
      <circle cx="0" cy="0" r="28" fill="none" stroke="#166534" stroke-width="0.8" stroke-dasharray="2 3" opacity="0.5" />
      <circle cx="0" cy="0" r="16" fill="none" stroke="#15803d" stroke-width="0.9" opacity="0.6" />
      <circle cx="0" cy="0" r="4" fill="#15803d" opacity="0.75" />
      <path d="M-36,0 L36,0 M0,-36 L0,36" stroke="#15803d" stroke-width="0.6" opacity="0.4" />
      <path d="M-24,-24 L24,24 M-24,24 L24,-24" stroke="#166534" stroke-width="0.6" opacity="0.4" />
    </g>


  <!-- Classical Banknote Architectural Guilloche Arches -->
  <g fill="none" stroke="#15803d">
    <!-- Repeating Banknote Guilloche Interlocking Arches -->
    <g opacity="0.65">
      
          <path d="M 370,700 A 80 104 0 0 1 530,700" stroke="#15803d" stroke-width="1.4" />
          <path d="M 370,700 A 80 104 0 0 0 530,700" stroke="#166534" stroke-width="1.4" stroke-dasharray="6 4" />
        

          <path d="M 352,700 A 98 127.4 0 0 1 548,700" stroke="#166534" stroke-width="1.7999999999999998" />
          <path d="M 352,700 A 98 127.4 0 0 0 548,700" stroke="#15803d" stroke-width="1.7999999999999998" stroke-dasharray="none" />
        

          <path d="M 334,700 A 116 150.8 0 0 1 566,700" stroke="#15803d" stroke-width="2.2" />
          <path d="M 334,700 A 116 150.8 0 0 0 566,700" stroke="#166534" stroke-width="2.2" stroke-dasharray="none" />
        

          <path d="M 316,700 A 134 174.20000000000002 0 0 1 584,700" stroke="#166534" stroke-width="1.4" />
          <path d="M 316,700 A 134 174.20000000000002 0 0 0 584,700" stroke="#15803d" stroke-width="1.4" stroke-dasharray="6 4" />
        

          <path d="M 298,700 A 152 197.6 0 0 1 602,700" stroke="#15803d" stroke-width="1.7999999999999998" />
          <path d="M 298,700 A 152 197.6 0 0 0 602,700" stroke="#166534" stroke-width="1.7999999999999998" stroke-dasharray="none" />
        

          <path d="M 280,700 A 170 221 0 0 1 620,700" stroke="#166534" stroke-width="2.2" />
          <path d="M 280,700 A 170 221 0 0 0 620,700" stroke="#15803d" stroke-width="2.2" stroke-dasharray="none" />
        

          <path d="M 262,700 A 188 244.4 0 0 1 638,700" stroke="#15803d" stroke-width="1.4" />
          <path d="M 262,700 A 188 244.4 0 0 0 638,700" stroke="#166534" stroke-width="1.4" stroke-dasharray="6 4" />
        

          <path d="M 244,700 A 206 267.8 0 0 1 656,700" stroke="#166534" stroke-width="1.7999999999999998" />
          <path d="M 244,700 A 206 267.8 0 0 0 656,700" stroke="#15803d" stroke-width="1.7999999999999998" stroke-dasharray="none" />
        

          <path d="M 226,700 A 224 291.2 0 0 1 674,700" stroke="#15803d" stroke-width="2.2" />
          <path d="M 226,700 A 224 291.2 0 0 0 674,700" stroke="#166534" stroke-width="2.2" stroke-dasharray="none" />
        

          <path d="M 208,700 A 242 314.6 0 0 1 692,700" stroke="#166534" stroke-width="1.4" />
          <path d="M 208,700 A 242 314.6 0 0 0 692,700" stroke="#15803d" stroke-width="1.4" stroke-dasharray="6 4" />
        

          <path d="M 190,700 A 260 338 0 0 1 710,700" stroke="#15803d" stroke-width="1.7999999999999998" />
          <path d="M 190,700 A 260 338 0 0 0 710,700" stroke="#166534" stroke-width="1.7999999999999998" stroke-dasharray="none" />
        

          <path d="M 172,700 A 278 361.40000000000003 0 0 1 728,700" stroke="#166534" stroke-width="2.2" />
          <path d="M 172,700 A 278 361.40000000000003 0 0 0 728,700" stroke="#15803d" stroke-width="2.2" stroke-dasharray="none" />
        

          <path d="M 154,700 A 296 384.8 0 0 1 746,700" stroke="#15803d" stroke-width="1.4" />
          <path d="M 154,700 A 296 384.8 0 0 0 746,700" stroke="#166534" stroke-width="1.4" stroke-dasharray="6 4" />
        

          <path d="M 136,700 A 314 408.2 0 0 1 764,700" stroke="#166534" stroke-width="1.7999999999999998" />
          <path d="M 136,700 A 314 408.2 0 0 0 764,700" stroke="#15803d" stroke-width="1.7999999999999998" stroke-dasharray="none" />
        

          <path d="M 118,700 A 332 431.6 0 0 1 782,700" stroke="#15803d" stroke-width="2.2" />
          <path d="M 118,700 A 332 431.6 0 0 0 782,700" stroke="#166534" stroke-width="2.2" stroke-dasharray="none" />
        

          <path d="M 100,700 A 350 455 0 0 1 800,700" stroke="#166534" stroke-width="1.4" />
          <path d="M 100,700 A 350 455 0 0 0 800,700" stroke="#15803d" stroke-width="1.4" stroke-dasharray="6 4" />
        

          <path d="M 82,700 A 368 478.40000000000003 0 0 1 818,700" stroke="#15803d" stroke-width="1.7999999999999998" />
          <path d="M 82,700 A 368 478.40000000000003 0 0 0 818,700" stroke="#166534" stroke-width="1.7999999999999998" stroke-dasharray="none" />
        

          <path d="M 64,700 A 386 501.8 0 0 1 836,700" stroke="#166534" stroke-width="2.2" />
          <path d="M 64,700 A 386 501.8 0 0 0 836,700" stroke="#15803d" stroke-width="2.2" stroke-dasharray="none" />
        
    </g>

    <!-- Banknote Lathe Rosette in Center -->
    <g transform="translate(450, 700)">
      <circle cx="0" cy="0" r="95" stroke="#15803d" stroke-width="2" />
      <circle cx="0" cy="0" r="75" stroke="#166534" stroke-width="1.2" stroke-dasharray="3 3" />
      <text x="0" y="-8" font-family="Arial, sans-serif" font-size="10" font-weight="900" fill="#15803d" text-anchor="middle">BANKNOTE GUILLOCHE</text>
      <text x="0" y="10" font-family="Arial, sans-serif" font-size="12" font-weight="900" fill="#166534" text-anchor="middle">SECURITY WATERMARK</text>
    </g>
  </g>
</svg>